<svg width="76" height="76" viewBox="0 0 76 76" fill="none" xmlns="http://www.w3.org/2000/svg">
<path d="M35.2953 22.2379C36.4987 20.0793 37.1003 19 38 19C38.8996 19 39.5013 20.0793 40.7046 22.2379L41.0159 22.7964C41.3576 23.4098 41.5286 23.7166 41.7952 23.9189C42.0619 24.1213 42.3937 24.1964 43.0578 24.3466L43.6623 24.4834C45.999 25.0121 47.1675 25.2765 47.4455 26.1703C47.7236 27.0642 46.9268 27.9956 45.334 29.8584L44.9217 30.3404C44.4692 30.8697 44.2428 31.1344 44.1408 31.4618C44.0391 31.7892 44.0733 32.1423 44.1417 32.8488L44.2041 33.4916C44.4448 35.9771 44.5654 37.2197 43.8377 37.7723C43.1097 38.3246 42.016 37.8211 39.8281 36.8138L39.2622 36.5531C38.6403 36.2669 38.3296 36.1237 38 36.1237C37.6703 36.1237 37.3597 36.2669 36.7378 36.5531L36.1719 36.8138C33.984 37.8211 32.8903 38.3246 32.1622 37.7723C31.4347 37.2197 31.5551 35.9771 31.7959 33.4916L31.8582 32.8488C31.9266 32.1423 31.9608 31.7892 31.8592 31.4618C31.7572 31.1344 31.5309 30.8697 31.0782 30.3404L30.6661 29.8584C29.0731 27.9956 28.2766 27.0642 28.5546 26.1703C28.8325 25.2765 30.0009 25.0121 32.3377 24.4834L32.9422 24.3466C33.6062 24.1964 33.9381 24.1213 34.2047 23.9189C34.4714 23.7166 34.6424 23.4098 34.9841 22.7964L35.2953 22.2379Z" stroke="black" stroke-width="2.5625"/>
<path d="M23.2785 47.5L21.2618 54.8562C19.272 62.1135 18.2771 65.7422 19.6047 67.729C20.07 68.425 20.6942 68.9839 21.4184 69.3525C23.4851 70.4048 26.676 68.7423 33.0578 65.417C35.1813 64.3106 36.2431 63.7573 37.3711 63.637C37.7894 63.5924 38.2106 63.5924 38.6289 63.637C39.7569 63.7573 40.8186 64.3106 42.9422 65.417C49.324 68.7423 52.515 70.4048 54.5816 69.3525C55.3058 68.9839 55.93 68.425 56.3952 67.729C57.7229 65.7422 56.728 62.1135 54.7384 54.8562L52.7215 47.5" stroke="black" stroke-width="2.5625" stroke-linecap="round"/>
<path d="M17.4167 20.2569C16.3953 22.805 15.8333 25.5869 15.8333 28.5C15.8333 40.7423 25.7577 50.6666 38 50.6666C50.2423 50.6666 60.1667 40.7423 60.1667 28.5C60.1667 16.2577 50.2423 6.33331 38 6.33331C35.087 6.33331 32.3051 6.89524 29.7569 7.91665" stroke="black" stroke-width="2.5625" stroke-linecap="round"/>
</svg>
